v 15.705382 0.772634 -2.426892
v -4.090529 0.772631 -2.426892
v -4.090529 1.329757 -1.869766
v 15.705382 1.329760 -1.869766
v 15.705382 1.329760 -1.869766
v 15.705382 1.329760 -0.214933
v 15.705382 0.772634 0.342193
v 15.705382 -0.736657 0.342193
v 15.705382 -0.736657 -2.426892
v 15.705382 0.772634 -2.426892
v -8.354248 1.265136 2.318750
v -15.073257 1.265134 2.318750
v -15.705383 0.633009 2.318750
v -15.073256 -2.364750 2.318750
v -8.354247 -1.732623 2.318750
v -8.986373 -2.364749 2.318750
v -15.705382 -1.732625 2.318750
v 0.618977 1.297861 -1.650325
v -0.394790 1.297861 -1.650325
v 2.199625 2.356644 -1.650325
v 2.322739 1.821829 -1.650325
v 4.037238 1.572160 -1.650325
v 4.037238 2.364749 -1.650325
v -0.394790 1.297861 -0.434374
v 0.618977 1.297861 -0.434375
v 2.322739 1.821829 -0.434375
v 2.199625 2.356644 -0.434374
v 4.037238 1.572160 -0.434375
v 4.037238 2.364749 -0.434374
v -0.394790 1.297861 -1.650325
v -0.394790 1.297861 -0.434374
v 2.199625 2.356644 -0.434374
v 2.199625 2.356644 -1.650325
v 4.037238 2.364749 -0.434374
v 4.037238 2.364749 -1.650325
v 4.037238 1.572160 -1.650325
v 4.037238 1.572160 -0.434375
v 2.322739 1.821829 -0.434375
v 2.322739 1.821829 -1.650325
v 0.618977 1.297861 -0.434375
v 0.618977 1.297861 -1.650325
v -4.090529 0.772631 0.342193
v -4.090529 -0.736660 0.342193
v 14.564558 -0.736657 0.342193
v 15.705382 0.772634 0.342193
v 15.705382 -0.736657 0.342193
v 15.705382 0.772634 -2.426892
v 15.705382 -0.736657 -2.426892
v 14.564559 -0.736657 -2.426892
v -4.090529 0.772631 -2.426892
v -4.090529 -0.736660 -2.426892
v -4.090529 0.772631 0.342193
v 15.705382 0.772634 0.342193
v 15.705382 1.329760 -0.214933
v -4.090529 1.329757 -0.214933
v 15.705382 -0.736657 0.342193
v 14.564558 -0.736657 0.342193
v 14.564558 -1.286657 -0.355847
v 15.705382 -1.286657 -0.355847
v -4.090529 -0.736660 0.342193
v -4.090529 -0.736660 -2.426892
v 14.564559 -0.736657 -2.426892
v 14.564558 -0.736657 0.342193
v 14.564559 -1.286657 -1.728853
v 14.564558 -1.286657 -0.355847
v 14.564559 -0.736657 -2.426892
v 15.705382 -0.736657 -2.426892
v 15.705382 -1.286657 -1.728853
v 14.564559 -1.286657 -1.728853
v 15.705382 -0.736657 -2.426892
v 15.705382 -0.736657 0.342193
v 15.705382 -1.286657 -0.355847
v 15.705382 -1.286657 -1.728853
v 11.019736 -0.736657 0.342193
v 9.878912 -0.736658 0.342193
v 9.878912 -1.286658 -0.355847
v 11.019736 -1.286658 -0.355847
v 9.878912 -0.736658 0.342193
v 9.878913 -0.736658 -2.426892
v 9.878913 -1.286658 -1.728853
v 9.878912 -1.286658 -0.355847
v 9.878913 -0.736658 -2.426892
v 11.019736 -0.736657 -2.426892
v 11.019736 -1.286658 -1.728853
v 9.878913 -1.286658 -1.728853
v 11.019736 -0.736657 -2.426892
v 11.019736 -0.736657 0.342193
v 11.019736 -1.286658 -0.355847
v 11.019736 -1.286658 -1.728853
v -8.800393 0.401003 2.049723
v -8.800393 1.239158 2.049723
v 0.000241 1.239160 2.049723
v 0.000241 0.401004 2.049723
v -8.800393 0.401003 2.426893
v 0.000241 0.401004 2.426893
v 0.000241 1.239160 2.426893
v -8.800393 1.239158 2.426893
v -8.800393 1.239158 2.426893
v 0.000241 1.239160 2.426893
v 0.000241 1.239160 2.049723
v -8.800393 1.239158 2.049723
v -8.800393 0.401003 2.426893
v -8.800393 1.239158 2.426893
v -8.800393 1.239158 2.049723
v -8.800393 0.401003 2.049723
v 0.000241 0.401004 2.426893
v -8.800393 0.401003 2.426893
v -8.800393 0.401003 2.049723
v 0.000241 0.401004 2.049723
v 0.000241 1.239160 2.426893
v 0.000241 0.401004 2.426893
v 0.000241 0.401004 2.049723
v 0.000241 1.239160 2.049723
v -8.354248 1.265136 2.131580
v -8.354247 -1.732623 2.131580
v -8.986373 -2.364749 2.131580
v -15.705382 -1.732625 2.131580
v -15.073257 1.265134 2.131580
v -15.705383 0.633009 2.131580
v -15.073256 -2.364750 2.131580
v -8.354248 1.265136 2.131580
v -15.073257 1.265134 2.131580
v -15.073257 1.265134 2.318750
v -8.354248 1.265136 2.318750
v -15.705383 0.633009 2.131580
v -15.705382 -1.732625 2.131580
v -15.705382 -1.732625 2.318750
v -15.705383 0.633009 2.318750
v -15.073256 -2.364750 2.131580
v -8.986373 -2.364749 2.131580
v -8.986373 -2.364749 2.318750
v -15.073256 -2.364750 2.318750
v -8.354247 -1.732623 2.131580
v -8.354248 1.265136 2.131580
v -8.354248 1.265136 2.318750
v -8.354247 -1.732623 2.318750
v -15.073257 1.265134 2.131580
v -15.705383 0.633009 2.131580
v -15.705383 0.633009 2.318750
v -15.073257 1.265134 2.318750
v -15.705382 -1.732625 2.131580
v -15.073256 -2.364750 2.131580
v -15.073256 -2.364750 2.318750
v -15.705382 -1.732625 2.318750
v -8.986373 -2.364749 2.131580
v -8.354247 -1.732623 2.131580
v -8.354247 -1.732623 2.318750
v -8.986373 -2.364749 2.318750
v -1.385019 -1.014582 0.318305
v -1.385019 1.552187 0.318305
v 1.794967 1.552187 0.318305
v 1.794968 -1.014581 0.318305
v -1.385019 -1.014582 2.070169
v 1.794968 -1.014581 2.070169
v 1.794967 1.552187 2.070169
v -1.385019 1.552187 2.070169
v -1.385019 1.552187 2.070169
v 1.794967 1.552187 2.070169
v 1.794967 1.552187 0.318305
v -1.385019 1.552187 0.318305
v -1.385019 -1.014582 2.070169
v -1.385019 1.552187 2.070169
v -1.385019 1.552187 0.318305
v -1.385019 -1.014582 0.318305
v 1.794968 -1.014581 2.070169
v -1.385019 -1.014582 2.070169
v -1.385019 -1.014582 0.318305
v 1.794968 -1.014581 0.318305
v 1.794967 1.552187 2.070169
v 1.794968 -1.014581 2.070169
v 1.794968 -1.014581 0.318305
v 1.794967 1.552187 0.318305
v 15.705382 1.329760 -0.214933
v 15.705382 1.329760 -1.869766
v -4.090529 1.329757 -1.869766
v -4.090529 1.329757 -0.214933
vt 0.262393 -0.736876
vt 0.002357 -0.736876
vt 0.002357 -0.744194
vt 0.262393 -0.744194
vt 0.029940 -0.679426
vt 0.008203 -0.679426
vt 0.000884 -0.672108
vt 0.000884 -0.652282
vt 0.037259 -0.652282
vt 0.037259 -0.672108
vt 0.430678 -0.684672
vt 0.277810 -0.684672
vt 0.263428 -0.699054
vt 0.277810 -0.767258
vt 0.430678 -0.752876
vt 0.416296 -0.767258
vt 0.263428 -0.752876
vt 0.975868 -0.756835
vt 0.977413 -0.735680
vt 0.995553 -0.791432
vt 0.984206 -0.793186
vt 0.976383 -0.828582
vt 0.992922 -0.829790
vt 0.977726 -0.735734
vt 0.976103 -0.756883
vt 0.984307 -0.793265
vt 0.995661 -0.791552
vt 0.976354 -0.828632
vt 0.992888 -0.829901
vt 0.947500 -0.829901
vt 0.972941 -0.829901
vt 0.972941 -0.775618
vt 0.947500 -0.775618
vt 0.972941 -0.737170
vt 0.947500 -0.737170
vt 0.947091 -0.829901
vt 0.972532 -0.829901
vt 0.972532 -0.794029
vt 0.947091 -0.794029
vt 0.972532 -0.758381
vt 0.947091 -0.758381
vt 0.002386 -0.736819
vt 0.002386 -0.716993
vt 0.247437 -0.716993
vt 0.262423 -0.736819
vt 0.262423 -0.716993
vt 0.262393 -0.736876
vt 0.262393 -0.717050
vt 0.247784 -0.717050
vt 0.002357 -0.736876
vt 0.002733 -0.717050
vt 0.002386 -0.736819
vt 0.262423 -0.736819
vt 0.262423 -0.744138
vt 0.002386 -0.744138
vt 0.262423 -0.716993
vt 0.247437 -0.716993
vt 0.247437 -0.709769
vt 0.262423 -0.709769
vt 0.247475 -0.716936
vt 0.247475 -0.680562
vt 0.002424 -0.680560
vt 0.002424 -0.716934
vt 0.002424 -0.707765
vt 0.002424 -0.689729
vt 0.247784 -0.717050
vt 0.262393 -0.717050
vt 0.262393 -0.709825
vt 0.247408 -0.709825
vt 0.037259 -0.652282
vt 0.000884 -0.652282
vt 0.010053 -0.645057
vt 0.028089 -0.645057
vt 0.262580 -0.716953
vt 0.247594 -0.716953
vt 0.247594 -0.709728
vt 0.262580 -0.709728
vt 0.001226 -0.644721
vt 0.037601 -0.644721
vt 0.028431 -0.637496
vt 0.010396 -0.637496
vt 0.262567 -0.717020
vt 0.247581 -0.717020
vt 0.247581 -0.709796
vt 0.262567 -0.709796
vt 0.001355 -0.644640
vt 0.037729 -0.644640
vt 0.028559 -0.637415
vt 0.010524 -0.637415
vt 0.499612 -0.564038
vt 0.499612 -0.582899
vt 0.697656 -0.582899
vt 0.697656 -0.564038
vt 0.499612 -0.583109
vt 0.697656 -0.583109
vt 0.697656 -0.564248
vt 0.499612 -0.564248
vt 0.499612 -0.562809
vt 0.697656 -0.562809
vt 0.697656 -0.554322
vt 0.499612 -0.554322
vt 0.499612 -0.593302
vt 0.518474 -0.593302
vt 0.518474 -0.584814
vt 0.499612 -0.584814
vt 0.499612 -0.556229
vt 0.697430 -0.556229
vt 0.697430 -0.552946
vt 0.499612 -0.552946
vt 0.499612 -0.592835
vt 0.518474 -0.592835
vt 0.518474 -0.584348
vt 0.499612 -0.584348
vt 0.430678 -0.684324
vt 0.430678 -0.752527
vt 0.416296 -0.766909
vt 0.263428 -0.752527
vt 0.277810 -0.684324
vt 0.263428 -0.698705
vt 0.277810 -0.766909
vt 0.416296 -0.682262
vt 0.263428 -0.682262
vt 0.263428 -0.678003
vt 0.416296 -0.678003
vt 0.419376 -0.682396
vt 0.365554 -0.682396
vt 0.365554 -0.678137
vt 0.419376 -0.678137
vt 0.401914 -0.682472
vt 0.263428 -0.682472
vt 0.263428 -0.678214
vt 0.401914 -0.678214
vt 0.331632 -0.682396
vt 0.263428 -0.682396
vt 0.263428 -0.678137
vt 0.331632 -0.678137
vt 0.433758 -0.682396
vt 0.419376 -0.682396
vt 0.419376 -0.678137
vt 0.433758 -0.678137
vt 0.365554 -0.682396
vt 0.351172 -0.682396
vt 0.351172 -0.678137
vt 0.365554 -0.678137
vt 0.346014 -0.682396
vt 0.331632 -0.682396
vt 0.331632 -0.678137
vt 0.346014 -0.678137
vt 0.480154 -0.603070
vt 0.480154 -0.562604
vt 0.430020 -0.562604
vt 0.430020 -0.603070
vt 0.480327 -0.575546
vt 0.430193 -0.575546
vt 0.430193 -0.603070
vt 0.480327 -0.603070
vt 0.480327 -0.604974
vt 0.430193 -0.604974
vt 0.430193 -0.632593
vt 0.480327 -0.632593
vt 0.470711 -0.634497
vt 0.430245 -0.634497
vt 0.430245 -0.662116
vt 0.470711 -0.662116
vt 0.480154 -0.604974
vt 0.430020 -0.604974
vt 0.430020 -0.632593
vt 0.480154 -0.632593
vt 0.470659 -0.634497
vt 0.430193 -0.634497
vt 0.430193 -0.662116
vt 0.470659 -0.662116
vt 0.262423 -0.744138
vt 0.262423 -0.765875
vt 0.002386 -0.765875
vt 0.002386 -0.744138
vn -0.000000 0.707107 -0.707107
vn -0.000000 0.707107 -0.707107
vn -0.000000 0.707107 -0.707107
vn -0.000000 0.707107 -0.707107
vn 1.000000 0.000000 -0.000000
vn 1.000000 0.000000 -0.000000
vn 1.000000 0.000000 -0.000000
vn 1.000000 0.000000 -0.000000
vn 1.000000 0.000000 -0.000000
vn 1.000000 0.000000 -0.000000
vn 0.000000 0.000000 1.000000
vn 0.000000 0.000000 1.000000
vn -0.000000 0.000000 1.000000
vn -0.000000 0.000000 1.000000
vn 0.000000 0.000000 1.000000
vn -0.000000 0.000000 1.000000
vn -0.000000 -0.000000 1.000000
vn -0.000000 -0.000000 -1.000000
vn 0.000000 -0.000000 -1.000000
vn -0.000000 0.000000 -1.000000
vn -0.000000 0.000000 -1.000000
vn -0.000000 0.000000 -1.000000
vn -0.000000 0.000000 -1.000000
vn 0.000000 -0.000001 1.000000
vn 0.000000 -0.000001 1.000000
vn 0.000000 -0.000001 1.000000
vn 0.000000 -0.000001 1.000000
vn -0.000000 -0.000001 1.000000
vn 0.000000 -0.000001 1.000000
vn -0.377847 0.925868 -0.000000
vn -0.377847 0.925868 -0.000000
vn -0.194689 0.980865 -0.000000
vn -0.194689 0.980865 -0.000000
vn -0.004410 0.999990 -0.000000
vn -0.004410 0.999990 0.000000
vn -0.144102 -0.989563 0.000000
vn -0.144102 -0.989563 0.000000
vn 0.076800 -0.997047 -0.000000
vn 0.076800 -0.997047 0.000000
vn 0.293949 -0.955821 0.000000
vn 0.293949 -0.955821 0.000000
vn 0.000000 0.000000 1.000000
vn 0.000000 0.000000 1.000000
vn 0.000000 0.000000 1.000000
vn 0.000000 0.000000 1.000000
vn 0.000000 0.000000 1.000000
vn -0.000000 -0.000000 -1.000000
vn -0.000000 -0.000000 -1.000000
vn -0.000000 -0.000000 -1.000000
vn -0.000000 -0.000000 -1.000000
vn -0.000000 -0.000000 -1.000000
vn -0.000000 0.707107 0.707107
vn -0.000000 0.707107 0.707107
vn -0.000000 0.707107 0.707107
vn -0.000000 0.707107 0.707107
vn 0.000000 -0.785476 0.618893
vn 0.000000 -0.785476 0.618893
vn 0.000000 -0.785476 0.618893
vn 0.000000 -0.785476 0.618893
vn 0.000000 -1.000000 -0.000000
vn 0.000000 -1.000000 -0.000000
vn -0.391013 -0.920385 -0.000000
vn -0.391013 -0.920385 -0.000000
vn -1.000000 -0.000000 -0.000000
vn -1.000000 0.000001 -0.000001
vn 0.000000 -0.785476 -0.618893
vn 0.000000 -0.785476 -0.618893
vn 0.000000 -0.785476 -0.618893
vn 0.000000 -0.785476 -0.618893
vn 1.000000 0.000000 -0.000000
vn 1.000000 0.000000 -0.000000
vn 1.000000 0.000000 -0.000000
vn 1.000000 0.000000 -0.000000
vn 0.000000 -0.785476 0.618893
vn 0.000000 -0.785476 0.618893
vn 0.000000 -0.785476 0.618893
vn 0.000000 -0.785476 0.618893
vn -1.000000 -0.000001 -0.000000
vn -1.000000 -0.000001 -0.000000
vn -1.000000 -0.000001 -0.000000
vn -1.000000 0.000001 -0.000001
vn 0.000000 -0.785476 -0.618893
vn 0.000000 -0.785476 -0.618893
vn 0.000000 -0.785476 -0.618893
vn 0.000000 -0.785476 -0.618893
vn 1.000000 0.000000 -0.000000
vn 1.000000 0.000000 -0.000000
vn 1.000000 0.000000 -0.000000
vn 1.000000 0.000000 -0.000000
vn -0.000000 -0.000000 -1.000000
vn -0.000000 -0.000000 -1.000000
vn -0.000000 -0.000000 -1.000000
vn -0.000000 -0.000000 -1.000000
vn 0.000000 0.000000 1.000000
vn 0.000000 0.000000 1.000000
vn 0.000000 0.000000 1.000000
vn 0.000000 0.000000 1.000000
vn -0.000000 1.000000 0.000000
vn -0.000000 1.000000 0.000000
vn -0.000000 1.000000 0.000000
vn -0.000000 1.000000 0.000000
vn -1.000000 -0.000000 0.000000
vn -1.000000 -0.000000 0.000000
vn -1.000000 -0.000000 0.000000
vn -1.000000 -0.000000 0.000000
vn 0.000000 -1.000000 -0.000000
vn 0.000000 -1.000000 -0.000000
vn 0.000000 -1.000000 -0.000000
vn 0.000000 -1.000000 -0.000000
vn 1.000000 0.000000 -0.000000
vn 1.000000 0.000000 -0.000000
vn 1.000000 0.000000 -0.000000
vn 1.000000 0.000000 -0.000000
vn -0.000000 -0.000000 -1.000000
vn -0.000000 -0.000000 -1.000000
vn -0.000000 -0.000000 -1.000000
vn -0.000000 -0.000000 -1.000000
vn -0.000000 -0.000000 -1.000000
vn -0.000000 -0.000000 -1.000000
vn -0.000000 -0.000000 -1.000000
vn -0.000000 1.000000 0.000000
vn -0.000000 1.000000 0.000000
vn -0.000000 1.000000 0.000000
vn -0.000000 1.000000 0.000000
vn -1.000000 -0.000000 0.000000
vn -1.000000 -0.000000 0.000000
vn -1.000000 -0.000000 0.000000
vn -1.000000 -0.000000 0.000000
vn 0.000000 -1.000000 -0.000000
vn 0.000000 -1.000000 -0.000000
vn 0.000000 -1.000000 -0.000000
vn 0.000000 -1.000000 -0.000000
vn 1.000000 0.000000 -0.000000
vn 1.000000 0.000000 -0.000000
vn 1.000000 0.000000 -0.000000
vn 1.000000 0.000000 -0.000000
vn -0.707107 0.707107 0.000000
vn -0.707107 0.707107 0.000000
vn -0.707107 0.707107 0.000000
vn -0.707107 0.707107 0.000000
vn -0.707107 -0.707107 0.000000
vn -0.707107 -0.707107 0.000000
vn -0.707107 -0.707107 0.000000
vn -0.707107 -0.707107 0.000000
vn 0.707107 -0.707107 -0.000000
vn 0.707107 -0.707107 -0.000000
vn 0.707107 -0.707107 -0.000000
vn 0.707107 -0.707107 -0.000000
vn -0.000000 -0.000000 -1.000000
vn -0.000000 -0.000000 -1.000000
vn -0.000000 -0.000000 -1.000000
vn -0.000000 -0.000000 -1.000000
vn 0.000000 0.000000 1.000000
vn 0.000000 0.000000 1.000000
vn 0.000000 0.000000 1.000000
vn 0.000000 0.000000 1.000000
vn -0.000000 1.000000 0.000000
vn -0.000000 1.000000 0.000000
vn -0.000000 1.000000 0.000000
vn -0.000000 1.000000 0.000000
vn -1.000000 -0.000000 0.000000
vn -1.000000 -0.000000 0.000000
vn -1.000000 -0.000000 0.000000
vn -1.000000 -0.000000 0.000000
vn 0.000000 -1.000000 -0.000000
vn 0.000000 -1.000000 -0.000000
vn 0.000000 -1.000000 -0.000000
vn 0.000000 -1.000000 -0.000000
vn 1.000000 0.000000 -0.000000
vn 1.000000 0.000000 -0.000000
vn 1.000000 0.000000 -0.000000
vn 1.000000 0.000000 -0.000000
vn -0.000000 1.000000 0.000000
vn -0.000000 1.000000 0.000000
vn -0.000000 1.000000 0.000000
vn -0.000000 1.000000 0.000000
f 1/1/1 2/2/2 3/3/3
f 3/3/3 4/4/4 1/1/1
f 5/5/5 6/6/6 7/7/7
f 5/5/5 7/7/7 8/8/8
f 5/5/5 8/8/8 9/9/9
f 10/10/10 5/5/5 9/9/9
f 11/11/11 12/12/12 13/13/13
f 11/11/11 13/13/13 14/14/14
f 11/11/11 14/14/14 15/15/15
f 14/14/14 16/16/16 15/15/15
f 13/13/13 17/17/17 14/14/14
f 18/18/18 19/19/19 20/20/20
f 20/20/20 21/21/21 18/18/18
f 22/22/22 21/21/21 20/20/20
f 20/20/20 23/23/23 22/22/22
f 24/24/24 25/25/25 26/26/26
f 26/26/26 27/27/27 24/24/24
f 27/27/27 26/26/26 28/28/28
f 28/28/28 29/29/29 27/27/27
f 30/30/30 31/31/31 32/32/32
f 32/32/32 33/33/33 30/30/30
f 33/33/33 32/32/32 34/34/34
f 34/34/34 35/35/35 33/33/33
f 36/36/36 37/37/37 38/38/38
f 38/38/38 39/39/39 36/36/36
f 39/39/39 38/38/38 40/40/40
f 40/40/40 41/41/41 39/39/39
f 42/42/42 43/43/43 44/44/44
f 45/45/45 42/42/42 44/44/44
f 45/45/45 44/44/44 46/46/46
f 47/47/47 48/48/48 49/49/49
f 50/50/50 47/47/47 49/49/49
f 50/50/50 49/49/49 51/51/51
f 52/52/52 53/53/53 54/54/54
f 54/54/54 55/55/55 52/52/52
f 56/56/56 57/57/57 58/58/58
f 58/58/58 59/59/59 56/56/56
f 60/60/60 61/61/61 62/62/62
f 63/63/63 60/60/60 62/62/62
f 63/63/63 62/62/62 64/64/64
f 63/63/63 64/64/64 65/65/65
f 66/66/66 67/67/67 68/68/68
f 68/68/68 69/69/69 66/66/66
f 70/70/70 71/71/71 72/72/72
f 72/72/72 73/73/73 70/70/70
f 74/74/74 75/75/75 76/76/76
f 76/76/76 77/77/77 74/74/74
f 78/78/78 79/79/79 80/80/80
f 80/80/80 81/81/81 78/78/78
f 82/82/82 83/83/83 84/84/84
f 84/84/84 85/85/85 82/82/82
f 86/86/86 87/87/87 88/88/88
f 88/88/88 89/89/89 86/86/86
f 90/90/90 91/91/91 92/92/92
f 92/92/92 93/93/93 90/90/90
f 94/94/94 95/95/95 96/96/96
f 96/96/96 97/97/97 94/94/94
f 98/98/98 99/99/99 100/100/100
f 100/100/100 101/101/101 98/98/98
f 102/102/102 103/103/103 104/104/104
f 104/104/104 105/105/105 102/102/102
f 106/106/106 107/107/107 108/108/108
f 108/108/108 109/109/109 106/106/106
f 110/110/110 111/111/111 112/112/112
f 112/112/112 113/113/113 110/110/110
f 114/114/114 115/115/115 116/116/116
f 114/114/114 116/116/116 117/117/117
f 114/114/114 117/117/117 118/118/118
f 117/117/117 119/119/119 118/118/118
f 116/116/116 120/120/120 117/117/117
f 121/121/121 122/122/122 123/123/123
f 123/123/123 124/124/124 121/121/121
f 125/125/125 126/126/126 127/127/127
f 127/127/127 128/128/128 125/125/125
f 129/129/129 130/130/130 131/131/131
f 131/131/131 132/132/132 129/129/129
f 133/133/133 134/134/134 135/135/135
f 135/135/135 136/136/136 133/133/133
f 137/137/137 138/138/138 139/139/139
f 139/139/139 140/140/140 137/137/137
f 141/141/141 142/142/142 143/143/143
f 143/143/143 144/144/144 141/141/141
f 145/145/145 146/146/146 147/147/147
f 147/147/147 148/148/148 145/145/145
f 149/149/149 150/150/150 151/151/151
f 151/151/151 152/152/152 149/149/149
f 153/153/153 154/154/154 155/155/155
f 155/155/155 156/156/156 153/153/153
f 157/157/157 158/158/158 159/159/159
f 159/159/159 160/160/160 157/157/157
f 161/161/161 162/162/162 163/163/163
f 163/163/163 164/164/164 161/161/161
f 165/165/165 166/166/166 167/167/167
f 167/167/167 168/168/168 165/165/165
f 169/169/169 170/170/170 171/171/171
f 171/171/171 172/172/172 169/169/169
f 173/173/173 174/174/174 175/175/175
f 175/175/175 176/176/176 173/173/173
