v 8.520549 0.000000 -1.668099
v 7.871960 -3.260673 -1.668097
v 6.024937 -6.024938 -1.668096
v -6.024938 6.024938 -1.668093
v -3.260673 7.871961 -1.668095
v -0.000000 8.520550 -1.668096
v -8.520549 0.000002 -1.668091
v -0.000001 -8.520549 -1.668093
v 3.260671 -7.871961 -1.668094
v -7.871961 3.260673 -1.668092
v -3.260674 -7.871960 -1.668092
v -6.024939 -6.024937 -1.668091
v -7.871961 -3.260671 -1.668091
v -4.315062 -4.315059 0.905370
v -5.637899 -2.335293 0.905370
v -6.208388 -2.571597 1.417326
v -4.751695 -4.751692 1.417325
v -2.335294 -5.637898 0.905370
v -2.571598 -6.208386 1.417325
v 0.000001 -6.102417 0.905369
v 0.000001 -6.719910 1.417324
v 2.335296 -5.637899 0.905368
v 2.571599 -6.208387 1.417324
v 4.315063 -4.315062 0.905367
v 4.751696 -4.751694 1.417323
v 5.637901 -2.335294 0.905367
v 6.208389 -2.571598 1.417318
v 6.102421 0.000001 0.905362
v 6.719913 0.000001 1.417317
v 5.637901 2.335296 0.905366
v 6.208390 2.571600 1.417317
v 4.315064 4.315063 0.905366
v 4.751696 4.751696 1.417321
v -6.024938 -6.024935 0.936163
v -3.260673 -7.871959 0.936163
v 0.000000 -8.520548 0.936162
v 3.260673 -7.871960 0.936161
v 6.024939 -6.024937 0.936156
v 7.871961 -3.260672 0.936155
v 8.520551 0.000001 0.936154
v 7.871962 3.260674 0.936153
v 6.024939 6.024939 0.936154
v 2.571600 6.208389 1.417321
v 3.260674 7.871961 0.936158
v 2.335296 5.637901 0.905366
v 0.000001 6.102421 0.905367
v 0.000001 6.719913 1.417322
v -2.335293 5.637901 0.905368
v -2.571597 6.208389 1.417323
v -4.315061 4.315064 0.905369
v -4.751694 4.751697 1.417324
v -5.637899 2.335295 0.905369
v -6.208388 2.571600 1.417325
v -6.102418 0.000003 0.905370
v -6.719911 0.000003 1.417325
v -8.520548 0.000002 0.936167
v -7.871960 -3.260671 0.936167
v 0.000001 8.520550 0.936159
v -3.260672 7.871961 0.936160
v -6.024937 6.024939 0.936161
v -7.871960 3.260674 0.936166
v -6.024939 -6.024937 -1.668091
v -3.260674 -7.871960 -1.668092
v -3.260673 -7.871959 0.936163
v 0.000000 -8.520548 0.936162
v -0.000001 -8.520549 -1.668093
v 3.260673 -7.871960 0.936161
v 3.260671 -7.871961 -1.668094
v 6.024939 -6.024937 0.936156
v 6.024937 -6.024938 -1.668096
v 7.871961 -3.260672 0.936155
v 7.871960 -3.260673 -1.668097
v 8.520551 0.000001 0.936154
v 8.520549 0.000000 -1.668099
v 7.871962 3.260674 0.936153
v 7.871961 3.260673 -1.668098
v 6.024939 6.024939 0.936154
v 6.024937 6.024939 -1.668098
v 3.260674 7.871961 0.936158
v 3.260673 7.871961 -1.668097
v 0.000001 8.520550 0.936159
v -0.000000 8.520550 -1.668096
v -3.260672 7.871961 0.936160
v -3.260673 7.871961 -1.668095
v -6.024937 6.024939 0.936161
v -6.024938 6.024938 -1.668093
v -7.871960 3.260674 0.936166
v -7.871961 3.260673 -1.668092
v -8.520548 0.000002 0.936167
v -8.520549 0.000002 -1.668091
v -7.871960 -3.260671 0.936167
v -7.871961 -3.260671 -1.668091
v -6.024938 -6.024935 0.936163
v -0.000008 -0.959358 0.783714
v -0.000007 -0.959357 1.668090
v -0.830837 -0.479678 1.668090
v -0.830838 -0.479677 0.783714
v -0.830837 0.479682 1.668090
v -0.830837 0.479682 0.783714
v -0.000007 0.959362 1.668090
v -0.000007 0.959362 0.783713
v 0.830824 0.479682 1.668090
v 0.830823 0.479682 0.783713
v 0.830823 -0.479678 1.668090
v 0.830823 -0.479678 0.783713
v -5.637899 -2.335293 0.905370
v -4.315062 -4.315059 0.905370
v -2.335294 -5.637898 0.905370
v -5.637899 2.335295 0.905369
v 5.637901 -2.335294 0.905367
v 2.335296 5.637901 0.905366
v 5.637901 2.335296 0.905366
v 4.315064 4.315063 0.905366
v 6.102421 0.000001 0.905362
v 0.000001 -6.102417 0.905369
v 2.335296 -5.637899 0.905368
v 4.315063 -4.315062 0.905367
v 3.260673 7.871961 -1.668097
v 6.024937 6.024939 -1.668098
v 7.871961 3.260673 -1.668098
v -0.000007 0.959362 1.668090
v -0.830837 0.479682 1.668090
v -0.830837 -0.479678 1.668090
v 0.830823 -0.479678 1.668090
v -0.000007 -0.959357 1.668090
v 0.830824 0.479682 1.668090
v 0.000001 6.102421 0.905367
v -2.335293 5.637901 0.905368
v -4.315061 4.315064 0.905369
v -6.102418 0.000003 0.905370
vt 0.708293 -0.477448
vt 0.717885 -0.429226
vt 0.745200 -0.388346
vt 0.923403 -0.566549
vt 0.882523 -0.593865
vt 0.834302 -0.603457
vt 0.960311 -0.477448
vt 0.834302 -0.351439
vt 0.786080 -0.361031
vt 0.950718 -0.525669
vt 0.882523 -0.361031
vt 0.923403 -0.388346
vt 0.950718 -0.429226
vt 0.896037 -0.414358
vt 0.915135 -0.442990
vt 0.925687 -0.438840
vt 0.904134 -0.406584
vt 0.867411 -0.395239
vt 0.871878 -0.385032
vt 0.833627 -0.388564
vt 0.833830 -0.377463
vt 0.799854 -0.395333
vt 0.795782 -0.385032
vt 0.771241 -0.414508
vt 0.763526 -0.406584
vt 0.752143 -0.443173
vt 0.741974 -0.438840
vt 0.745467 -0.476963
vt 0.734406 -0.476888
vt 0.752231 -0.510736
vt 0.741974 -0.514936
vt 0.771405 -0.539350
vt 0.763526 -0.547192
vt 0.922972 -0.387746
vt 0.882074 -0.360418
vt 0.833830 -0.350822
vt 0.785587 -0.360418
vt 0.744688 -0.387746
vt 0.717360 -0.428645
vt 0.707764 -0.476888
vt 0.717360 -0.525131
vt 0.744688 -0.566030
vt 0.795782 -0.568744
vt 0.785587 -0.593358
vt 0.800070 -0.558448
vt 0.833861 -0.565121
vt 0.833830 -0.576313
vt 0.867638 -0.558354
vt 0.871878 -0.568744
vt 0.896275 -0.539186
vt 0.904134 -0.547192
vt 0.915466 -0.510548
vt 0.925687 -0.514936
vt 0.922038 -0.476748
vt 0.933255 -0.476888
vt 0.959896 -0.476888
vt 0.950300 -0.428645
vt 0.833830 -0.602954
vt 0.882074 -0.593358
vt 0.922972 -0.566030
vt 0.950300 -0.525131
vt 0.997048 -0.519220
vt 0.997048 -0.477746
vt 0.963154 -0.477746
vt 0.963155 -0.436273
vt 0.997048 -0.436273
vt 0.963155 -0.394799
vt 0.997048 -0.394799
vt 0.963155 -0.353326
vt 0.997048 -0.353326
vt 0.963155 -0.311853
vt 0.997048 -0.311853
vt 0.963155 -0.270379
vt 0.997048 -0.270379
vt 0.963155 -0.312028
vt 0.997048 -0.312028
vt 0.963155 -0.353501
vt 0.997048 -0.353501
vt 0.963155 -0.394974
vt 0.997048 -0.394974
vt 0.963155 -0.436448
vt 0.997048 -0.436448
vt 0.963154 -0.477921
vt 0.997048 -0.477921
vt 0.963154 -0.519395
vt 0.997048 -0.519395
vt 0.963154 -0.560868
vt 0.997048 -0.560868
vt 0.963154 -0.602167
vt 0.997048 -0.602167
vt 0.963154 -0.560693
vt 0.997048 -0.560693
vt 0.963154 -0.519220
vt 0.050232 -0.037085
vt 0.060041 -0.037084
vt 0.060041 -0.043919
vt 0.050232 -0.043920
vt 0.060042 -0.057576
vt 0.050232 -0.057577
vt 0.060042 -0.064398
vt 0.050232 -0.064399
vt 0.060042 -0.057563
vt 0.050232 -0.057564
vt 0.060041 -0.043907
vt 0.050232 -0.043907
vt 0.915135 -0.442990
vt 0.896037 -0.414358
vt 0.867411 -0.395239
vt 0.915466 -0.510548
vt 0.752143 -0.443173
vt 0.800070 -0.558448
vt 0.752231 -0.510736
vt 0.771405 -0.539350
vt 0.745467 -0.476963
vt 0.833627 -0.388564
vt 0.799854 -0.395333
vt 0.771241 -0.414508
vt 0.786080 -0.593865
vt 0.745200 -0.566549
vt 0.717885 -0.525669
vt 0.066422 -0.061573
vt 0.060257 -0.050485
vt 0.066422 -0.039396
vt 0.084918 -0.050485
vt 0.078753 -0.039396
vt 0.078753 -0.061573
vt 0.833861 -0.565121
vt 0.867638 -0.558354
vt 0.896275 -0.539186
vt 0.922038 -0.476748
vn -0.000000 -0.000000 -1.000000
vn 0.000000 -0.000001 -1.000000
vn -0.000000 -0.000000 -1.000000
vn -0.000000 -0.000000 -1.000000
vn -0.000000 -0.000001 -1.000000
vn -0.000000 -0.000000 -1.000000
vn -0.000000 -0.000000 -1.000000
vn -0.000000 -0.000000 -1.000000
vn -0.000000 -0.000001 -1.000000
vn -0.000000 -0.000000 -1.000000
vn -0.000000 0.000001 -1.000000
vn -0.000000 -0.000000 -1.000000
vn -0.000000 -0.000000 -1.000000
vn 0.451314 0.451313 0.769826
vn 0.589669 0.244249 0.769826
vn 0.145960 0.060459 0.987441
vn 0.111713 0.111712 0.987441
vn 0.244249 0.589670 0.769826
vn 0.060459 0.145959 0.987441
vn 0.000000 0.638253 0.769826
vn 0.000000 0.157985 0.987442
vn -0.244249 0.589670 0.769826
vn -0.060458 0.145959 0.987441
vn -0.451313 0.451314 0.769826
vn -0.111711 0.111712 0.987442
vn -0.589667 0.244249 0.769828
vn -0.145957 0.060458 0.987442
vn -0.638253 -0.000000 0.769827
vn -0.157984 0.000000 0.987442
vn -0.589667 -0.244248 0.769828
vn -0.145957 -0.060458 0.987442
vn -0.451313 -0.451314 0.769826
vn -0.111711 -0.111712 0.987442
vn -0.578579 -0.578580 0.574884
vn -0.313125 -0.755950 0.574884
vn 0.000000 -0.818235 0.574884
vn 0.313125 -0.755951 0.574884
vn 0.578580 -0.578580 0.574883
vn 0.755951 -0.313125 0.574883
vn 0.818235 0.000000 0.574883
vn 0.755951 0.313125 0.574883
vn 0.578580 0.578580 0.574882
vn -0.060458 -0.145959 0.987442
vn 0.313126 0.755951 0.574884
vn -0.244249 -0.589669 0.769826
vn 0.000000 -0.638254 0.769826
vn 0.000000 -0.157985 0.987442
vn 0.244249 -0.589669 0.769826
vn 0.060459 -0.145959 0.987441
vn 0.451314 -0.451313 0.769826
vn 0.111712 -0.111712 0.987442
vn 0.589669 -0.244249 0.769826
vn 0.145960 -0.060458 0.987441
vn 0.638254 0.000000 0.769826
vn 0.157986 0.000000 0.987441
vn -0.818235 0.000000 0.574885
vn -0.755950 -0.313125 0.574885
vn 0.000000 0.818235 0.574883
vn -0.313125 0.755951 0.574884
vn -0.578579 0.578580 0.574884
vn -0.755950 0.313125 0.574885
vn -0.707107 -0.707107 0.000001
vn -0.382684 -0.923879 0.000001
vn -0.313125 -0.755950 0.574884
vn 0.000000 -0.818235 0.574884
vn -0.000000 -1.000000 0.000000
vn 0.313125 -0.755951 0.574884
vn 0.382683 -0.923880 0.000000
vn 0.578580 -0.578580 0.574883
vn 0.707107 -0.707107 -0.000000
vn 0.755951 -0.313125 0.574883
vn 0.923880 -0.382684 -0.000000
vn 0.818235 0.000000 0.574883
vn 1.000000 -0.000000 -0.000001
vn 0.755951 0.313125 0.574883
vn 0.923880 0.382683 -0.000000
vn 0.578580 0.578580 0.574882
vn 0.707107 0.707107 -0.000001
vn 0.313126 0.755951 0.574884
vn 0.382684 0.923880 -0.000000
vn 0.000000 0.818235 0.574883
vn -0.000000 1.000000 -0.000000
vn -0.313125 0.755951 0.574884
vn -0.382683 0.923880 0.000000
vn -0.578579 0.578580 0.574884
vn -0.707107 0.707107 0.000000
vn -0.755950 0.313125 0.574885
vn -0.923880 0.382684 0.000000
vn -0.818235 0.000000 0.574885
vn -1.000000 0.000000 0.000000
vn -0.755950 -0.313125 0.574885
vn -0.923880 -0.382683 0.000000
vn -0.578579 -0.578580 0.574884
vn -0.000000 -1.000000 0.000000
vn 0.000000 -1.000000 0.000000
vn -0.866025 -0.500000 0.000001
vn -0.866026 -0.500000 0.000001
vn -0.866025 0.500000 0.000001
vn -0.866025 0.500000 0.000001
vn 0.000000 1.000000 0.000000
vn -0.000000 1.000000 0.000000
vn 0.866026 0.500000 -0.000001
vn 0.866025 0.500000 -0.000001
vn 0.866025 -0.500000 -0.000001
vn 0.866025 -0.500000 -0.000001
vn 0.000000 0.000000 1.000000
vn 0.000000 0.000000 1.000000
vn 0.000000 0.000000 1.000000
vn 0.000000 0.000000 1.000000
vn 0.000001 0.000000 1.000000
vn 0.000000 0.000000 1.000000
vn 0.000001 0.000000 1.000000
vn 0.000000 0.000000 1.000000
vn 0.000009 0.000000 1.000000
vn 0.000000 0.000000 1.000000
vn 0.000000 0.000000 1.000000
vn 0.000000 0.000000 1.000000
vn -0.000000 0.000001 -1.000000
vn -0.000000 -0.000000 -1.000000
vn 0.000000 0.000000 -1.000000
vn 0.000000 0.000000 1.000000
vn 0.000000 0.000000 1.000000
vn 0.000000 0.000000 1.000000
vn 0.000000 0.000000 1.000000
vn 0.000000 0.000000 1.000000
vn 0.000000 0.000000 1.000000
vn 0.000000 0.000000 1.000000
vn 0.000000 0.000000 1.000000
vn 0.000000 0.000000 1.000000
vn 0.000000 0.000000 1.000000
f 1/1/1 2/2/2 3/3/3
f 4/4/4 5/5/5 6/6/6
f 4/4/4 6/6/6 7/7/7
f 6/6/6 1/1/1 7/7/7
f 1/1/1 8/8/8 7/7/7
f 1/1/1 3/3/3 8/8/8
f 3/3/3 9/9/9 8/8/8
f 10/10/10 4/4/4 7/7/7
f 8/8/8 11/11/11 12/12/12
f 8/8/8 12/12/12 7/7/7
f 12/12/12 13/13/13 7/7/7
f 14/14/14 15/15/15 16/16/16
f 16/16/16 17/17/17 14/14/14
f 18/18/18 14/14/14 17/17/17
f 17/17/17 19/19/19 18/18/18
f 20/20/20 18/18/18 19/19/19
f 19/19/19 21/21/21 20/20/20
f 22/22/22 20/20/20 21/21/21
f 21/21/21 23/23/23 22/22/22
f 24/24/24 22/22/22 23/23/23
f 23/23/23 25/25/25 24/24/24
f 26/26/26 24/24/24 25/25/25
f 25/25/25 27/27/27 26/26/26
f 28/28/28 26/26/26 27/27/27
f 27/27/27 29/29/29 28/28/28
f 30/30/30 28/28/28 29/29/29
f 29/29/29 31/31/31 30/30/30
f 32/32/32 30/30/30 31/31/31
f 31/31/31 33/33/33 32/32/32
f 19/19/19 17/17/17 34/34/34
f 34/34/34 35/35/35 19/19/19
f 21/21/21 19/19/19 35/35/35
f 35/35/35 36/36/36 21/21/21
f 23/23/23 21/21/21 36/36/36
f 36/36/36 37/37/37 23/23/23
f 25/25/25 23/23/23 37/37/37
f 37/37/37 38/38/38 25/25/25
f 27/27/27 25/25/25 38/38/38
f 38/38/38 39/39/39 27/27/27
f 29/29/29 27/27/27 39/39/39
f 39/39/39 40/40/40 29/29/29
f 31/31/31 29/29/29 40/40/40
f 40/40/40 41/41/41 31/31/31
f 33/33/33 31/31/31 41/41/41
f 41/41/41 42/42/42 33/33/33
f 43/43/43 33/33/33 42/42/42
f 42/42/42 44/44/44 43/43/43
f 45/45/45 32/32/32 33/33/33
f 33/33/33 43/43/43 45/45/45
f 46/46/46 45/45/45 43/43/43
f 43/43/43 47/47/47 46/46/46
f 48/48/48 46/46/46 47/47/47
f 47/47/47 49/49/49 48/48/48
f 50/50/50 48/48/48 49/49/49
f 49/49/49 51/51/51 50/50/50
f 52/52/52 50/50/50 51/51/51
f 51/51/51 53/53/53 52/52/52
f 54/54/54 52/52/52 53/53/53
f 53/53/53 55/55/55 54/54/54
f 15/15/15 54/54/54 55/55/55
f 55/55/55 16/16/16 15/15/15
f 16/16/16 55/55/55 56/56/56
f 56/56/56 57/57/57 16/16/16
f 17/17/17 16/16/16 57/57/57
f 57/57/57 34/34/34 17/17/17
f 47/47/47 43/43/43 44/44/44
f 44/44/44 58/58/58 47/47/47
f 49/49/49 47/47/47 58/58/58
f 58/58/58 59/59/59 49/49/49
f 51/51/51 49/49/49 59/59/59
f 59/59/59 60/60/60 51/51/51
f 53/53/53 51/51/51 60/60/60
f 60/60/60 61/61/61 53/53/53
f 55/55/55 53/53/53 61/61/61
f 61/61/61 56/56/56 55/55/55
f 62/62/62 63/63/63 64/64/64
f 65/65/65 64/64/64 63/63/63
f 63/63/63 66/66/66 65/65/65
f 67/67/67 65/65/65 66/66/66
f 66/66/66 68/68/68 67/67/67
f 69/69/69 67/67/67 68/68/68
f 68/68/68 70/70/70 69/69/69
f 71/71/71 69/69/69 70/70/70
f 70/70/70 72/72/72 71/71/71
f 73/73/73 71/71/71 72/72/72
f 72/72/72 74/74/74 73/73/73
f 75/75/75 73/73/73 74/74/74
f 74/74/74 76/76/76 75/75/75
f 77/77/77 75/75/75 76/76/76
f 76/76/76 78/78/78 77/77/77
f 79/79/79 77/77/77 78/78/78
f 78/78/78 80/80/80 79/79/79
f 81/81/81 79/79/79 80/80/80
f 80/80/80 82/82/82 81/81/81
f 83/83/83 81/81/81 82/82/82
f 82/82/82 84/84/84 83/83/83
f 85/85/85 83/83/83 84/84/84
f 84/84/84 86/86/86 85/85/85
f 87/87/87 85/85/85 86/86/86
f 86/86/86 88/88/88 87/87/87
f 89/89/89 87/87/87 88/88/88
f 88/88/88 90/90/90 89/89/89
f 91/91/91 89/89/89 90/90/90
f 90/90/90 92/92/92 91/91/91
f 93/93/93 91/91/91 92/92/92
f 92/92/92 62/62/62 93/93/93
f 64/64/64 93/93/93 62/62/62
f 94/94/94 95/95/95 96/96/96
f 96/96/96 97/97/97 94/94/94
f 97/97/97 96/96/96 98/98/98
f 98/98/98 99/99/99 97/97/97
f 99/99/99 98/98/98 100/100/100
f 100/100/100 101/101/101 99/99/99
f 101/101/101 100/100/100 102/102/102
f 102/102/102 103/103/103 101/101/101
f 103/103/103 102/102/102 104/104/104
f 104/104/104 105/105/105 103/103/103
f 105/105/105 104/104/104 95/95/95
f 95/95/95 94/94/94 105/105/105
f 106/106/106 107/107/107 108/108/108
f 106/106/106 108/108/108 109/109/109
f 108/108/108 110/110/110 109/109/109
f 110/110/110 111/111/111 109/109/109
f 110/110/110 112/112/112 111/111/111
f 112/112/112 113/113/113 111/111/111
f 110/110/110 114/114/114 112/112/112
f 108/108/108 115/115/115 116/116/116
f 108/108/108 116/116/116 110/110/110
f 116/116/116 117/117/117 110/110/110
f 6/6/6 118/118/118 119/119/119
f 6/6/6 119/119/119 1/1/1
f 119/119/119 120/120/120 1/1/1
f 121/121/121 122/122/122 123/123/123
f 121/121/121 123/123/123 124/124/124
f 123/123/123 125/125/125 124/124/124
f 126/126/126 121/121/121 124/124/124
f 111/111/111 127/127/127 128/128/128
f 111/111/111 128/128/128 109/109/109
f 128/128/128 129/129/129 109/109/109
f 130/130/130 106/106/106 109/109/109
