v 7.871963 3.260669 1.670764
v 6.024940 6.024935 1.670764
v 8.520549 -0.000002 1.670764
v -0.000001 -8.520550 1.670769
v 6.024937 -6.024940 1.670766
v 7.871961 -3.260675 1.670765
v 3.260672 -7.871962 1.670767
v 3.260676 7.871959 1.670766
v 0.000003 8.520548 1.670766
v -8.520549 0.000002 1.670771
v -6.024939 -6.024938 1.670772
v -3.260674 -7.871961 1.670770
v -7.871961 -3.260672 1.670772
v -3.260670 7.871961 1.670768
v -6.024936 6.024939 1.670770
v -7.871960 3.260674 1.670771
v 7.871960 -3.260675 -0.933490
v 6.024936 -6.024939 -0.933488
v 4.751693 -4.751696 -1.414651
v 2.571596 -6.208389 -1.414650
v 2.335292 -5.637901 -0.902693
v -0.000002 -6.102419 -0.902692
v -0.000003 -6.719912 -1.414650
v -2.335297 -5.637900 -0.902692
v -2.571601 -6.208389 -1.414649
v -4.315063 -4.315063 -0.902692
v -4.751697 -4.751695 -1.414647
v -5.637901 -2.335294 -0.902691
v -6.208390 -2.571599 -1.414647
v -6.102420 0.000001 -0.902692
v -6.719913 0.000001 -1.414647
v -5.637900 2.335295 -0.902692
v -6.208389 2.571599 -1.414647
v -4.315062 4.315063 -0.902693
v -4.751695 4.751695 -1.414648
v -2.335294 5.637899 -0.902694
v -8.520551 0.000001 -0.933483
v -7.871962 -3.260672 -0.933483
v -6.024940 -6.024937 -0.933483
v -3.260675 -7.871961 -0.933485
v -0.000003 -8.520551 -0.933486
v 3.260671 -7.871962 -0.933487
v 6.208387 -2.571602 -1.414652
v 8.520548 -0.000002 -0.933490
v 6.719911 -0.000002 -1.414653
v 7.871962 3.260669 -0.933491
v 6.208389 2.571595 -1.414653
v 6.024939 6.024935 -0.933491
v 4.751696 4.751693 -1.414653
v 3.260674 7.871958 -0.933490
v 2.571599 6.208386 -1.414653
v 0.000002 8.520548 -0.933487
v 0.000001 6.719911 -1.414650
v -3.260672 7.871960 -0.933486
v -2.571598 6.208387 -1.414649
v -6.024937 6.024939 -0.933485
v -7.871961 3.260674 -0.933484
v 0.000001 6.102419 -0.902695
v 2.335295 5.637898 -0.902695
v 4.315063 4.315060 -0.902696
v 5.637900 2.335292 -0.902696
v 6.102418 -0.000001 -0.902695
v 5.637898 -2.335297 -0.902695
v 4.315061 -4.315063 -0.902694
v -7.871961 -3.260672 1.670772
v -8.520549 0.000002 1.670771
v -8.520551 0.000001 -0.933483
v -7.871961 3.260674 -0.933484
v -7.871960 3.260674 1.670771
v -6.024937 6.024939 -0.933485
v -6.024936 6.024939 1.670770
v -3.260672 7.871960 -0.933486
v -3.260670 7.871961 1.670768
v 0.000002 8.520548 -0.933487
v 0.000003 8.520548 1.670766
v 3.260674 7.871958 -0.933490
v 3.260676 7.871959 1.670766
v 6.024939 6.024935 -0.933491
v 6.024940 6.024935 1.670764
v 7.871962 3.260669 -0.933491
v 7.871963 3.260669 1.670764
v 8.520548 -0.000002 -0.933490
v 8.520549 -0.000002 1.670764
v 7.871960 -3.260675 -0.933490
v 7.871961 -3.260675 1.670765
v 6.024936 -6.024939 -0.933488
v 6.024937 -6.024940 1.670766
v 3.260671 -7.871962 -0.933487
v 3.260672 -7.871962 1.670767
v -0.000003 -8.520551 -0.933486
v -0.000001 -8.520550 1.670769
v -3.260675 -7.871961 -0.933485
v -3.260674 -7.871961 1.670770
v -6.024940 -6.024937 -0.933483
v -6.024939 -6.024938 1.670772
v -7.871962 -3.260672 -0.933483
v 0.292299 -0.790601 -0.786399
v -0.000000 -0.959360 -0.786399
v -0.000000 -0.959360 -1.670775
v -0.538531 -0.648439 -0.786398
v -0.830830 -0.479680 -1.670775
v -0.830830 -0.479680 -0.786398
v -0.830830 0.142162 -0.786399
v -0.830830 0.479679 -1.670775
v -0.830830 0.479680 -0.786399
v -0.292299 0.790601 -0.786399
v -0.000001 0.959359 -1.670775
v 0.000000 0.959360 -0.786399
v 0.538531 0.648439 -0.786399
v 0.830829 0.479679 -1.670776
v 0.830830 0.479679 -0.786399
v 0.830830 -0.142163 -0.786399
v 0.830829 -0.479680 -1.670775
v 0.830830 -0.479680 -0.786399
v -2.335297 -5.637900 -0.902692
v -4.315063 -4.315063 -0.902692
v -5.637901 -2.335294 -0.902691
v 2.335292 -5.637901 -0.902693
v 5.637900 2.335292 -0.902696
v 5.637898 -2.335297 -0.902695
v 6.102418 -0.000001 -0.902695
v -0.000002 -6.102419 -0.902692
v 4.315061 -4.315063 -0.902694
v -0.000001 0.959359 -1.670775
v 0.830829 0.479679 -1.670776
v 0.830829 -0.479680 -1.670775
v -0.830830 -0.479680 -1.670775
v -0.000000 -0.959360 -1.670775
v -0.830830 0.479679 -1.670775
v -6.102420 0.000001 -0.902692
v -5.637900 2.335295 -0.902692
v -2.335294 5.637899 -0.902694
v 2.335295 5.637898 -0.902695
v 4.315063 4.315060 -0.902696
v 0.000001 6.102419 -0.902695
v -4.315062 4.315063 -0.902693
vt 0.950718 -0.525669
vt 0.923403 -0.566549
vt 0.960311 -0.477448
vt 0.834302 -0.351439
vt 0.923403 -0.388346
vt 0.950718 -0.429226
vt 0.882523 -0.361031
vt 0.882523 -0.593865
vt 0.834302 -0.603457
vt 0.708293 -0.477448
vt 0.745200 -0.388346
vt 0.786080 -0.361031
vt 0.717885 -0.429226
vt 0.786080 -0.593865
vt 0.745200 -0.566549
vt 0.717885 -0.525669
vt 0.950300 -0.428645
vt 0.922972 -0.387746
vt 0.904134 -0.406584
vt 0.871878 -0.385032
vt 0.867411 -0.395239
vt 0.833627 -0.388564
vt 0.833830 -0.377463
vt 0.799854 -0.395333
vt 0.795782 -0.385032
vt 0.771241 -0.414508
vt 0.763526 -0.406584
vt 0.752143 -0.443173
vt 0.741974 -0.438840
vt 0.745467 -0.476963
vt 0.734406 -0.476888
vt 0.752231 -0.510736
vt 0.741974 -0.514936
vt 0.771405 -0.539350
vt 0.763526 -0.547192
vt 0.800070 -0.558448
vt 0.707764 -0.476888
vt 0.717360 -0.428645
vt 0.744688 -0.387746
vt 0.785587 -0.360418
vt 0.833830 -0.350822
vt 0.882074 -0.360418
vt 0.925687 -0.438840
vt 0.959896 -0.476888
vt 0.933255 -0.476888
vt 0.950300 -0.525131
vt 0.925687 -0.514936
vt 0.922972 -0.566030
vt 0.904134 -0.547192
vt 0.882074 -0.593358
vt 0.871878 -0.568744
vt 0.833830 -0.602954
vt 0.833830 -0.576313
vt 0.785587 -0.593358
vt 0.795782 -0.568744
vt 0.744688 -0.566030
vt 0.717360 -0.525131
vt 0.833861 -0.565121
vt 0.867638 -0.558354
vt 0.896275 -0.539186
vt 0.915466 -0.510548
vt 0.922038 -0.476748
vt 0.915135 -0.442990
vt 0.896037 -0.414358
vt 0.997048 -0.311853
vt 0.997048 -0.270379
vt 0.963155 -0.270379
vt 0.963155 -0.312028
vt 0.997048 -0.312028
vt 0.963155 -0.353501
vt 0.997048 -0.353501
vt 0.963155 -0.394974
vt 0.997048 -0.394974
vt 0.963155 -0.436448
vt 0.997048 -0.436448
vt 0.963154 -0.477921
vt 0.997048 -0.477921
vt 0.963154 -0.519395
vt 0.997048 -0.519395
vt 0.963154 -0.560868
vt 0.997048 -0.560868
vt 0.963154 -0.602167
vt 0.997048 -0.602167
vt 0.963154 -0.560693
vt 0.997048 -0.560693
vt 0.963154 -0.519220
vt 0.997048 -0.519220
vt 0.963154 -0.477746
vt 0.997048 -0.477746
vt 0.963155 -0.436273
vt 0.997048 -0.436273
vt 0.963155 -0.394799
vt 0.997048 -0.394799
vt 0.963155 -0.353326
vt 0.997048 -0.353326
vt 0.963155 -0.311853
vt 0.050232 -0.039489
vt 0.050232 -0.037085
vt 0.060041 -0.037084
vt 0.050232 -0.041507
vt 0.060041 -0.043907
vt 0.050232 -0.043907
vt 0.050232 -0.052759
vt 0.060042 -0.057563
vt 0.050232 -0.057564
vt 0.050232 -0.061994
vt 0.060042 -0.064398
vt 0.050232 -0.064399
vt 0.050232 -0.059977
vt 0.060042 -0.057576
vt 0.050232 -0.057577
vt 0.050232 -0.048724
vt 0.060041 -0.043919
vt 0.050232 -0.043920
vt 0.799854 -0.395333
vt 0.771241 -0.414508
vt 0.752143 -0.443173
vt 0.867411 -0.395239
vt 0.915466 -0.510548
vt 0.915135 -0.442990
vt 0.922038 -0.476748
vt 0.833627 -0.388564
vt 0.896037 -0.414358
vt 0.066422 -0.061573
vt 0.060257 -0.050485
vt 0.066422 -0.039396
vt 0.084918 -0.050485
vt 0.078753 -0.039396
vt 0.078753 -0.061573
vt 0.745467 -0.476963
vt 0.752231 -0.510736
vt 0.800070 -0.558448
vt 0.867638 -0.558354
vt 0.896275 -0.539186
vt 0.833861 -0.565121
vt 0.771405 -0.539350
vn 0.000000 0.000000 1.000000
vn 0.000000 0.000000 1.000000
vn 0.000000 0.000000 1.000000
vn 0.000000 0.000000 1.000000
vn 0.000000 0.000000 1.000000
vn 0.000000 0.000000 1.000000
vn 0.000001 -0.000000 1.000000
vn 0.000000 -0.000001 1.000000
vn 0.000000 0.000000 1.000000
vn 0.000000 0.000000 1.000000
vn 0.000000 0.000000 1.000000
vn 0.000000 -0.000001 1.000000
vn 0.000000 0.000000 1.000000
vn 0.000001 -0.000000 1.000000
vn 0.000000 0.000000 1.000000
vn 0.000000 0.000000 1.000000
vn 0.755951 -0.313125 -0.574884
vn 0.578579 -0.578580 -0.574884
vn -0.111713 0.111713 -0.987441
vn -0.060459 0.145960 -0.987441
vn -0.244250 0.589671 -0.769825
vn -0.000000 0.638255 -0.769825
vn -0.000000 0.157985 -0.987441
vn 0.244250 0.589671 -0.769825
vn 0.060458 0.145960 -0.987441
vn 0.451313 0.451314 -0.769826
vn 0.111712 0.111712 -0.987442
vn 0.589669 0.244249 -0.769826
vn 0.145959 0.060458 -0.987442
vn 0.638253 -0.000000 -0.769826
vn 0.157985 -0.000000 -0.987442
vn 0.589669 -0.244249 -0.769826
vn 0.145959 -0.060458 -0.987442
vn 0.451313 -0.451314 -0.769826
vn 0.111712 -0.111712 -0.987442
vn 0.244249 -0.589670 -0.769826
vn -0.818235 0.000000 -0.574883
vn -0.755951 -0.313125 -0.574883
vn -0.578580 -0.578580 -0.574883
vn -0.313126 -0.755951 -0.574884
vn -0.000000 -0.818235 -0.574884
vn 0.313125 -0.755951 -0.574884
vn -0.145960 0.060458 -0.987441
vn 0.818235 -0.000000 -0.574884
vn -0.157986 -0.000000 -0.987441
vn 0.755951 0.313125 -0.574884
vn -0.145960 -0.060459 -0.987441
vn 0.578580 0.578579 -0.574884
vn -0.111713 -0.111713 -0.987441
vn 0.313125 0.755951 -0.574884
vn -0.060459 -0.145960 -0.987441
vn -0.000000 0.818235 -0.574884
vn -0.000001 -0.157985 -0.987441
vn -0.313125 0.755951 -0.574884
vn 0.060458 -0.145959 -0.987441
vn -0.578580 0.578580 -0.574883
vn -0.755951 0.313125 -0.574883
vn -0.000000 -0.638254 -0.769826
vn -0.244250 -0.589671 -0.769825
vn -0.451315 -0.451314 -0.769825
vn -0.589671 -0.244249 -0.769825
vn -0.638255 0.000000 -0.769825
vn -0.589671 0.244250 -0.769825
vn -0.451314 0.451314 -0.769825
vn -0.923880 -0.382683 0.000001
vn -1.000000 0.000000 0.000001
vn -0.818235 0.000000 -0.574883
vn -0.755951 0.313125 -0.574883
vn -0.923879 0.382684 0.000000
vn -0.578580 0.578580 -0.574883
vn -0.707107 0.707107 0.000000
vn -0.313125 0.755951 -0.574884
vn -0.382683 0.923880 0.000000
vn -0.000000 0.818235 -0.574884
vn 0.000000 1.000000 -0.000000
vn 0.313125 0.755951 -0.574884
vn 0.382684 0.923879 -0.000000
vn 0.578580 0.578579 -0.574884
vn 0.707107 0.707107 -0.000000
vn 0.755951 0.313125 -0.574884
vn 0.923880 0.382683 -0.000000
vn 0.818235 -0.000000 -0.574884
vn 1.000000 -0.000000 -0.000000
vn 0.755951 -0.313125 -0.574884
vn 0.923879 -0.382684 -0.000000
vn 0.578579 -0.578580 -0.574884
vn 0.707107 -0.707107 -0.000000
vn 0.313125 -0.755951 -0.574884
vn 0.382683 -0.923880 -0.000000
vn -0.000000 -0.818235 -0.574884
vn -0.000000 -1.000000 0.000000
vn -0.313126 -0.755951 -0.574884
vn -0.382684 -0.923879 0.000000
vn -0.578580 -0.578580 -0.574883
vn -0.707107 -0.707107 0.000000
vn -0.755951 -0.313125 -0.574883
vn 0.500000 -0.866026 0.000000
vn -0.000000 -1.000000 0.000001
vn -0.000000 -1.000000 0.000000
vn -0.500000 -0.866025 0.000001
vn -0.866026 -0.500000 0.000001
vn -0.866026 -0.500000 0.000000
vn -1.000000 0.000000 0.000001
vn -0.866025 0.500000 0.000001
vn -0.866025 0.500000 0.000001
vn -0.500000 0.866025 0.000000
vn -0.000000 1.000000 -0.000000
vn 0.000000 1.000000 -0.000000
vn 0.500000 0.866025 -0.000001
vn 0.866025 0.500000 -0.000001
vn 0.866026 0.499999 -0.000001
vn 1.000000 -0.000000 -0.000001
vn 0.866025 -0.500000 -0.000000
vn 0.866025 -0.500000 -0.000001
vn -0.000000 -0.000000 -1.000000
vn -0.000000 -0.000000 -1.000000
vn -0.000000 -0.000000 -1.000000
vn -0.000000 -0.000000 -1.000000
vn -0.000000 -0.000000 -1.000000
vn -0.000000 -0.000000 -1.000000
vn -0.000000 -0.000000 -1.000000
vn -0.000000 -0.000000 -1.000000
vn -0.000000 -0.000000 -1.000000
vn -0.000000 -0.000000 -1.000000
vn -0.000000 -0.000000 -1.000000
vn -0.000000 -0.000000 -1.000000
vn -0.000000 -0.000000 -1.000000
vn -0.000000 -0.000000 -1.000000
vn -0.000000 -0.000000 -1.000000
vn -0.000000 -0.000000 -1.000000
vn -0.000000 -0.000000 -1.000000
vn -0.000000 -0.000000 -1.000000
vn -0.000000 -0.000000 -1.000000
vn -0.000000 -0.000000 -1.000000
vn -0.000000 -0.000000 -1.000000
vn -0.000000 -0.000000 -1.000000
f 1/1/1 2/2/2 3/3/3
f 4/4/4 5/5/5 3/3/3
f 5/5/5 6/6/6 3/3/3
f 4/4/4 7/7/7 5/5/5
f 2/2/2 8/8/8 9/9/9
f 2/2/2 9/9/9 3/3/3
f 9/9/9 10/10/10 3/3/3
f 10/10/10 4/4/4 3/3/3
f 10/10/10 11/11/11 4/4/4
f 11/11/11 12/12/12 4/4/4
f 10/10/10 13/13/13 11/11/11
f 9/9/9 14/14/14 15/15/15
f 9/9/9 15/15/15 10/10/10
f 15/15/15 16/16/16 10/10/10
f 17/17/17 18/18/18 19/19/19
f 20/20/20 19/19/19 18/18/18
f 19/19/19 20/20/20 21/21/21
f 22/22/22 21/21/21 20/20/20
f 20/20/20 23/23/23 22/22/22
f 24/24/24 22/22/22 23/23/23
f 23/23/23 25/25/25 24/24/24
f 26/26/26 24/24/24 25/25/25
f 25/25/25 27/27/27 26/26/26
f 28/28/28 26/26/26 27/27/27
f 27/27/27 29/29/29 28/28/28
f 30/30/30 28/28/28 29/29/29
f 29/29/29 31/31/31 30/30/30
f 32/32/32 30/30/30 31/31/31
f 31/31/31 33/33/33 32/32/32
f 34/34/34 32/32/32 33/33/33
f 33/33/33 35/35/35 34/34/34
f 36/36/36 34/34/34 35/35/35
f 33/33/33 31/31/31 37/37/37
f 38/38/38 37/37/37 31/31/31
f 31/31/31 29/29/29 38/38/38
f 39/39/39 38/38/38 29/29/29
f 29/29/29 27/27/27 39/39/39
f 40/40/40 39/39/39 27/27/27
f 27/27/27 25/25/25 40/40/40
f 41/41/41 40/40/40 25/25/25
f 25/25/25 23/23/23 41/41/41
f 42/42/42 41/41/41 23/23/23
f 23/23/23 20/20/20 42/42/42
f 18/18/18 42/42/42 20/20/20
f 19/19/19 43/43/43 17/17/17
f 44/44/44 17/17/17 43/43/43
f 43/43/43 45/45/45 44/44/44
f 46/46/46 44/44/44 45/45/45
f 45/45/45 47/47/47 46/46/46
f 48/48/48 46/46/46 47/47/47
f 47/47/47 49/49/49 48/48/48
f 50/50/50 48/48/48 49/49/49
f 49/49/49 51/51/51 50/50/50
f 52/52/52 50/50/50 51/51/51
f 51/51/51 53/53/53 52/52/52
f 54/54/54 52/52/52 53/53/53
f 53/53/53 55/55/55 54/54/54
f 56/56/56 54/54/54 55/55/55
f 55/55/55 35/35/35 56/56/56
f 57/57/57 56/56/56 35/35/35
f 35/35/35 33/33/33 57/57/57
f 37/37/37 57/57/57 33/33/33
f 35/35/35 55/55/55 36/36/36
f 58/58/58 36/36/36 55/55/55
f 55/55/55 53/53/53 58/58/58
f 59/59/59 58/58/58 53/53/53
f 53/53/53 51/51/51 59/59/59
f 60/60/60 59/59/59 51/51/51
f 51/51/51 49/49/49 60/60/60
f 61/61/61 60/60/60 49/49/49
f 49/49/49 47/47/47 61/61/61
f 62/62/62 61/61/61 47/47/47
f 47/47/47 45/45/45 62/62/62
f 63/63/63 62/62/62 45/45/45
f 45/45/45 43/43/43 63/63/63
f 64/64/64 63/63/63 43/43/43
f 43/43/43 19/19/19 64/64/64
f 21/21/21 64/64/64 19/19/19
f 65/65/65 66/66/66 67/67/67
f 68/68/68 67/67/67 66/66/66
f 66/66/66 69/69/69 68/68/68
f 70/70/70 68/68/68 69/69/69
f 69/69/69 71/71/71 70/70/70
f 72/72/72 70/70/70 71/71/71
f 71/71/71 73/73/73 72/72/72
f 74/74/74 72/72/72 73/73/73
f 73/73/73 75/75/75 74/74/74
f 76/76/76 74/74/74 75/75/75
f 75/75/75 77/77/77 76/76/76
f 78/78/78 76/76/76 77/77/77
f 77/77/77 79/79/79 78/78/78
f 80/80/80 78/78/78 79/79/79
f 79/79/79 81/81/81 80/80/80
f 82/82/82 80/80/80 81/81/81
f 81/81/81 83/83/83 82/82/82
f 84/84/84 82/82/82 83/83/83
f 83/83/83 85/85/85 84/84/84
f 86/86/86 84/84/84 85/85/85
f 85/85/85 87/87/87 86/86/86
f 88/88/88 86/86/86 87/87/87
f 87/87/87 89/89/89 88/88/88
f 90/90/90 88/88/88 89/89/89
f 89/89/89 91/91/91 90/90/90
f 92/92/92 90/90/90 91/91/91
f 91/91/91 93/93/93 92/92/92
f 94/94/94 92/92/92 93/93/93
f 93/93/93 95/95/95 94/94/94
f 96/96/96 94/94/94 95/95/95
f 95/95/95 65/65/65 96/96/96
f 67/67/67 96/96/96 65/65/65
f 97/97/97 98/98/98 99/99/99
f 100/100/100 99/99/99 98/98/98
f 100/100/100 101/101/101 99/99/99
f 100/100/100 102/102/102 101/101/101
f 103/103/103 101/101/101 102/102/102
f 103/103/103 104/104/104 101/101/101
f 103/103/103 105/105/105 104/104/104
f 106/106/106 104/104/104 105/105/105
f 106/106/106 107/107/107 104/104/104
f 106/106/106 108/108/108 107/107/107
f 109/109/109 107/107/107 108/108/108
f 109/109/109 110/110/110 107/107/107
f 109/109/109 111/111/111 110/110/110
f 112/112/112 110/110/110 111/111/111
f 112/112/112 113/113/113 110/110/110
f 112/112/112 114/114/114 113/113/113
f 97/97/97 113/113/113 114/114/114
f 97/97/97 99/99/99 113/113/113
f 115/115/115 116/116/116 117/117/117
f 118/118/118 115/115/115 117/117/117
f 118/118/118 117/117/117 119/119/119
f 120/120/120 118/118/118 119/119/119
f 121/121/121 120/120/120 119/119/119
f 118/118/118 122/122/122 115/115/115
f 120/120/120 123/123/123 118/118/118
f 124/124/124 125/125/125 126/126/126
f 124/124/124 126/126/126 127/127/127
f 126/126/126 128/128/128 127/127/127
f 129/129/129 124/124/124 127/127/127
f 117/117/117 130/130/130 131/131/131
f 117/117/117 131/131/131 132/132/132
f 117/117/117 132/132/132 119/119/119
f 132/132/132 133/133/133 119/119/119
f 133/133/133 134/134/134 119/119/119
f 132/132/132 135/135/135 133/133/133
f 131/131/131 136/136/136 132/132/132
